<svg width="160" height="27" viewBox="0 0 160 27" xmlns="http://www.w3.org/2000/svg"><title>page-logo</title><g fill="none"><path fill-opacity=".85" fill="#fff" d="M-24-32h1024v91h-1024z"/><path d="M98 16v2h21v-2h-21zm0-4v2h41v-2h-41zm0-4v2h62v-2h-62zm-57 8v2h21v-2h-21zm-20-4v2h41v-2h-41zm-21-4v2h62v-2h-62zm77.97 18.992v-1.68h1.232c1.248 0 1.92-.832 1.92-1.824 0-1-.672-1.832-1.92-1.832h-2.848v5.336h1.616zm1.102-3.08h-1.024v-.84h1.024c.272 0 .488.136.488.424 0 .28-.216.416-.488.416zm7.577 3.074v-1.408h-2.024v-3.928h-1.616v5.336h3.64zm1.707-7.986l5.394-18.977h-4.463l-3.339 13.797-3.563-13.797h-3.002l-3.627 13.797-3.337-13.797h-4.546l5.503 18.977h4.228l3.248-12.824 3.276 12.824h4.228z" fill="#000"/></g></svg>